<svg width="1404" height="1026" viewBox="0 0 1404 1026" fill="none" xmlns="http://www.w3.org/2000/svg">
<rect width="54" height="54" fill="#2E2C3A"/>
<rect x="54" width="54" height="54" fill="#322F42"/>
<rect x="108" width="54" height="54" fill="#363346"/>
<rect x="162" width="54" height="54" fill="#3B394E"/>
<rect x="216" width="54" height="54" fill="#3C3E53"/>
<rect x="270" width="54" height="54" fill="#3F445A"/>
<rect x="324" width="54" height="54" fill="#454A60"/>
<rect x="378" width="54" height="54" fill="#514F65"/>
<rect x="432" width="54" height="54" fill="#73566C"/>
<rect x="486" width="54" height="54" fill="#AB656F"/>
<rect x="540" width="54" height="54" fill="#C96D6E"/>
<rect x="594" width="54" height="54" fill="#BF6E75"/>
<rect x="648" width="54" height="54" fill="#8C6578"/>
<rect x="702" width="54" height="54" fill="#57617C"/>
<rect x="756" width="54" height="54" fill="#36647B"/>
<rect x="810" width="54" height="54" fill="#27687E"/>
<rect x="864" width="54" height="54" fill="#3D7083"/>
<rect x="918" width="54" height="54" fill="#787F8F"/>
<rect x="972" width="54" height="54" fill="#9A8D97"/>
<rect x="1026" width="54" height="54" fill="#837F8D"/>
<rect x="1080" width="54" height="54" fill="#3D6074"/>
<rect x="1134" width="54" height="54" fill="#184E66"/>
<rect x="1188" width="54" height="54" fill="#0B4960"/>
<rect x="1242" width="54" height="54" fill="#06485E"/>
<rect x="1296" width="54" height="54" fill="#06485E"/>
<rect x="1350" width="54" height="54" fill="#054960"/>
<rect y="54" width="54" height="54" fill="#313042"/>
<rect x="54" y="54" width="54" height="54" fill="#353348"/>
<rect x="108" y="54" width="54" height="54" fill="#38394D"/>
<rect x="162" y="54" width="54" height="54" fill="#3D3F54"/>
<rect x="216" y="54" width="54" height="54" fill="#41465C"/>
<rect x="270" y="54" width="54" height="54" fill="#464E65"/>
<rect x="324" y="54" width="54" height="54" fill="#4F556D"/>
<rect x="378" y="54" width="54" height="54" fill="#5A5C73"/>
<rect x="432" y="54" width="54" height="54" fill="#846479"/>
<rect x="486" y="54" width="54" height="54" fill="#BA737B"/>
<rect x="540" y="54" width="54" height="54" fill="#D77979"/>
<rect x="594" y="54" width="54" height="54" fill="#CA7B80"/>
<rect x="648" y="54" width="54" height="54" fill="#9A7587"/>
<rect x="702" y="54" width="54" height="54" fill="#69748A"/>
<rect x="756" y="54" width="54" height="54" fill="#4F758A"/>
<rect x="810" y="54" width="54" height="54" fill="#43778C"/>
<rect x="864" y="54" width="54" height="54" fill="#4C7D8E"/>
<rect x="918" y="54" width="54" height="54" fill="#698392"/>
<rect x="972" y="54" width="54" height="54" fill="#8D8D99"/>
<rect x="1026" y="54" width="54" height="54" fill="#888795"/>
<rect x="1080" y="54" width="54" height="54" fill="#5A6F82"/>
<rect x="1134" y="54" width="54" height="54" fill="#25576E"/>
<rect x="1188" y="54" width="54" height="54" fill="#0C4E66"/>
<rect x="1242" y="54" width="54" height="54" fill="#064D63"/>
<rect x="1296" y="54" width="54" height="54" fill="#054B64"/>
<rect x="1350" y="54" width="54" height="54" fill="#054D65"/>
<rect y="108" width="54" height="54" fill="#343345"/>
<rect x="54" y="108" width="54" height="54" fill="#3A384D"/>
<rect x="108" y="108" width="54" height="54" fill="#3F4055"/>
<rect x="162" y="108" width="54" height="54" fill="#46485F"/>
<rect x="216" y="108" width="54" height="54" fill="#4B5169"/>
<rect x="270" y="108" width="54" height="54" fill="#525A71"/>
<rect x="324" y="108" width="54" height="54" fill="#5C627A"/>
<rect x="378" y="108" width="54" height="54" fill="#67687D"/>
<rect x="432" y="108" width="54" height="54" fill="#927182"/>
<rect x="486" y="108" width="54" height="54" fill="#C97E83"/>
<rect x="540" y="108" width="54" height="54" fill="#E28381"/>
<rect x="594" y="108" width="54" height="54" fill="#D38487"/>
<rect x="648" y="108" width="54" height="54" fill="#A48292"/>
<rect x="702" y="108" width="54" height="54" fill="#7B8295"/>
<rect x="756" y="108" width="54" height="54" fill="#678496"/>
<rect x="810" y="108" width="54" height="54" fill="#5D8797"/>
<rect x="864" y="108" width="54" height="54" fill="#6A8B9A"/>
<rect x="918" y="108" width="54" height="54" fill="#768D9B"/>
<rect x="972" y="108" width="54" height="54" fill="#85919D"/>
<rect x="1026" y="108" width="54" height="54" fill="#9A929D"/>
<rect x="1080" y="108" width="54" height="54" fill="#818392"/>
<rect x="1134" y="108" width="54" height="54" fill="#40667B"/>
<rect x="1188" y="108" width="54" height="54" fill="#12556F"/>
<rect x="1242" y="108" width="54" height="54" fill="#08526B"/>
<rect x="1296" y="108" width="54" height="54" fill="#055169"/>
<rect x="1350" y="108" width="54" height="54" fill="#06546B"/>
<rect y="162" width="54" height="54" fill="#3A3549"/>
<rect x="54" y="162" width="54" height="54" fill="#433E54"/>
<rect x="108" y="162" width="54" height="54" fill="#4C485F"/>
<rect x="162" y="162" width="54" height="54" fill="#56526B"/>
<rect x="216" y="162" width="54" height="54" fill="#5C5C74"/>
<rect x="270" y="162" width="54" height="54" fill="#64667B"/>
<rect x="324" y="162" width="54" height="54" fill="#6F6D82"/>
<rect x="378" y="162" width="54" height="54" fill="#7C7388"/>
<rect x="432" y="162" width="54" height="54" fill="#A37D8C"/>
<rect x="486" y="162" width="54" height="54" fill="#D48588"/>
<rect x="540" y="162" width="54" height="54" fill="#EC8984"/>
<rect x="594" y="162" width="54" height="54" fill="#DC8C8D"/>
<rect x="648" y="162" width="54" height="54" fill="#AD8B99"/>
<rect x="702" y="162" width="54" height="54" fill="#868B9E"/>
<rect x="756" y="162" width="54" height="54" fill="#80909F"/>
<rect x="810" y="162" width="54" height="54" fill="#7B919F"/>
<rect x="864" y="162" width="54" height="54" fill="#8A96A2"/>
<rect x="918" y="162" width="54" height="54" fill="#8F97A2"/>
<rect x="972" y="162" width="54" height="54" fill="#9D9CA4"/>
<rect x="1026" y="162" width="54" height="54" fill="#B8A1A7"/>
<rect x="1080" y="162" width="54" height="54" fill="#B09BA2"/>
<rect x="1134" y="162" width="54" height="54" fill="#6E7B8C"/>
<rect x="1188" y="162" width="54" height="54" fill="#206079"/>
<rect x="1242" y="162" width="54" height="54" fill="#105A73"/>
<rect x="1296" y="162" width="54" height="54" fill="#0A586F"/>
<rect x="1350" y="162" width="54" height="54" fill="#0B5B72"/>
<rect y="216" width="54" height="54" fill="#483B4F"/>
<rect x="54" y="216" width="54" height="54" fill="#54465D"/>
<rect x="108" y="216" width="54" height="54" fill="#605168"/>
<rect x="162" y="216" width="54" height="54" fill="#6A5C73"/>
<rect x="216" y="216" width="54" height="54" fill="#72667C"/>
<rect x="270" y="216" width="54" height="54" fill="#776F84"/>
<rect x="324" y="216" width="54" height="54" fill="#837688"/>
<rect x="378" y="216" width="54" height="54" fill="#8F7C8F"/>
<rect x="432" y="216" width="54" height="54" fill="#B0858F"/>
<rect x="486" y="216" width="54" height="54" fill="#E28A89"/>
<rect x="540" y="216" width="54" height="54" fill="#F78F86"/>
<rect x="594" y="216" width="54" height="54" fill="#E58F8E"/>
<rect x="648" y="216" width="54" height="54" fill="#B58F9C"/>
<rect x="702" y="216" width="54" height="54" fill="#9493A1"/>
<rect x="756" y="216" width="54" height="54" fill="#A399A4"/>
<rect x="810" y="216" width="54" height="54" fill="#A59BA6"/>
<rect x="864" y="216" width="54" height="54" fill="#A39DA9"/>
<rect x="918" y="216" width="54" height="54" fill="#989AA6"/>
<rect x="972" y="216" width="54" height="54" fill="#9E9EA8"/>
<rect x="1026" y="216" width="54" height="54" fill="#C0AAAC"/>
<rect x="1080" y="216" width="54" height="54" fill="#C7A9A9"/>
<rect x="1134" y="216" width="54" height="54" fill="#998F9A"/>
<rect x="1188" y="216" width="54" height="54" fill="#3D7085"/>
<rect x="1242" y="216" width="54" height="54" fill="#25667C"/>
<rect x="1296" y="216" width="54" height="54" fill="#286278"/>
<rect x="1350" y="216" width="54" height="54" fill="#1B6278"/>
<rect y="270" width="54" height="54" fill="#594358"/>
<rect x="54" y="270" width="54" height="54" fill="#664E64"/>
<rect x="108" y="270" width="54" height="54" fill="#735A6F"/>
<rect x="162" y="270" width="54" height="54" fill="#7E657A"/>
<rect x="216" y="270" width="54" height="54" fill="#816E81"/>
<rect x="270" y="270" width="54" height="54" fill="#867588"/>
<rect x="324" y="270" width="54" height="54" fill="#917C8D"/>
<rect x="378" y="270" width="54" height="54" fill="#967E8C"/>
<rect x="432" y="270" width="54" height="54" fill="#9E707A"/>
<rect x="486" y="270" width="54" height="54" fill="#95575A"/>
<rect x="540" y="270" width="54" height="54" fill="#CE716A"/>
<rect x="594" y="270" width="54" height="54" fill="#ED9490"/>
<rect x="648" y="270" width="54" height="54" fill="#BC949F"/>
<rect x="702" y="270" width="54" height="54" fill="#9E96A5"/>
<rect x="756" y="270" width="54" height="54" fill="#B8A1A9"/>
<rect x="810" y="270" width="54" height="54" fill="#BFA4A9"/>
<rect x="864" y="270" width="54" height="54" fill="#BAA3A9"/>
<rect x="918" y="270" width="54" height="54" fill="#A49CA7"/>
<rect x="972" y="270" width="54" height="54" fill="#859BA6"/>
<rect x="1026" y="270" width="54" height="54" fill="#B3A6AD"/>
<rect x="1080" y="270" width="54" height="54" fill="#CFADAC"/>
<rect x="1134" y="270" width="54" height="54" fill="#B59CA2"/>
<rect x="1188" y="270" width="54" height="54" fill="#557B8E"/>
<rect x="1242" y="270" width="54" height="54" fill="#386F84"/>
<rect x="1296" y="270" width="54" height="54" fill="#546C84"/>
<rect x="1350" y="270" width="54" height="54" fill="#42687F"/>
<rect y="324" width="54" height="54" fill="#62495E"/>
<rect x="54" y="324" width="54" height="54" fill="#71556B"/>
<rect x="108" y="324" width="54" height="54" fill="#7D6074"/>
<rect x="162" y="324" width="54" height="54" fill="#896A7C"/>
<rect x="216" y="324" width="54" height="54" fill="#8D7285"/>
<rect x="270" y="324" width="54" height="54" fill="#8A7586"/>
<rect x="324" y="324" width="54" height="54" fill="#5A4856"/>
<rect x="378" y="324" width="54" height="54" fill="#4A3642"/>
<rect x="432" y="324" width="54" height="54" fill="#583740"/>
<rect x="486" y="324" width="54" height="54" fill="#B46761"/>
<rect x="540" y="324" width="54" height="54" fill="#FD9A83"/>
<rect x="594" y="324" width="54" height="54" fill="#F3968F"/>
<rect x="648" y="324" width="54" height="54" fill="#BF959F"/>
<rect x="702" y="324" width="54" height="54" fill="#A098A7"/>
<rect x="756" y="324" width="54" height="54" fill="#BBA4AC"/>
<rect x="810" y="324" width="54" height="54" fill="#C8AAAC"/>
<rect x="864" y="324" width="54" height="54" fill="#C6A9AD"/>
<rect x="918" y="324" width="54" height="54" fill="#ACA0AA"/>
<rect x="972" y="324" width="54" height="54" fill="#7F9BA6"/>
<rect x="1026" y="324" width="54" height="54" fill="#98A2AB"/>
<rect x="1080" y="324" width="54" height="54" fill="#CBABAC"/>
<rect x="1134" y="324" width="54" height="54" fill="#BCA1A6"/>
<rect x="1188" y="324" width="54" height="54" fill="#5C8394"/>
<rect x="1242" y="324" width="54" height="54" fill="#337488"/>
<rect x="1296" y="324" width="54" height="54" fill="#62748A"/>
<rect x="1350" y="324" width="54" height="54" fill="#536D84"/>
<rect y="378" width="54" height="54" fill="#5C4358"/>
<rect x="54" y="378" width="54" height="54" fill="#6C4F65"/>
<rect x="108" y="378" width="54" height="54" fill="#7F5E71"/>
<rect x="162" y="378" width="54" height="54" fill="#846376"/>
<rect x="216" y="378" width="54" height="54" fill="#876A7C"/>
<rect x="270" y="378" width="54" height="54" fill="#8A7282"/>
<rect x="324" y="378" width="54" height="54" fill="#7E6374"/>
<rect x="378" y="378" width="54" height="54" fill="#8D6678"/>
<rect x="432" y="378" width="54" height="54" fill="#E6897A"/>
<rect x="486" y="378" width="54" height="54" fill="#FDA17C"/>
<rect x="540" y="378" width="54" height="54" fill="#FCA280"/>
<rect x="594" y="378" width="54" height="54" fill="#F89A8E"/>
<rect x="648" y="378" width="54" height="54" fill="#C597A1"/>
<rect x="702" y="378" width="54" height="54" fill="#A29AA9"/>
<rect x="756" y="378" width="54" height="54" fill="#BEA7AD"/>
<rect x="810" y="378" width="54" height="54" fill="#CFADAC"/>
<rect x="864" y="378" width="54" height="54" fill="#CAADAF"/>
<rect x="918" y="378" width="54" height="54" fill="#ADA3AC"/>
<rect x="972" y="378" width="54" height="54" fill="#7D9EA7"/>
<rect x="1026" y="378" width="54" height="54" fill="#84A1A9"/>
<rect x="1080" y="378" width="54" height="54" fill="#BDA8AD"/>
<rect x="1134" y="378" width="54" height="54" fill="#B1A0A8"/>
<rect x="1188" y="378" width="54" height="54" fill="#5C8797"/>
<rect x="1242" y="378" width="54" height="54" fill="#2D788D"/>
<rect x="1296" y="378" width="54" height="54" fill="#57768B"/>
<rect x="1350" y="378" width="54" height="54" fill="#567186"/>
<rect y="432" width="54" height="54" fill="#4F384A"/>
<rect x="54" y="432" width="54" height="54" fill="#66465B"/>
<rect x="108" y="432" width="54" height="54" fill="#805B6D"/>
<rect x="162" y="432" width="54" height="54" fill="#8F6A7C"/>
<rect x="216" y="432" width="54" height="54" fill="#8C6B7C"/>
<rect x="270" y="432" width="54" height="54" fill="#816176"/>
<rect x="324" y="432" width="54" height="54" fill="#856475"/>
<rect x="378" y="432" width="54" height="54" fill="#BE8081"/>
<rect x="432" y="432" width="54" height="54" fill="#FCA26E"/>
<rect x="486" y="432" width="54" height="54" fill="#FCB577"/>
<rect x="540" y="432" width="54" height="54" fill="#FBAD7D"/>
<rect x="594" y="432" width="54" height="54" fill="#F99C8B"/>
<rect x="648" y="432" width="54" height="54" fill="#C698A2"/>
<rect x="702" y="432" width="54" height="54" fill="#A89CAA"/>
<rect x="756" y="432" width="54" height="54" fill="#CAACAE"/>
<rect x="810" y="432" width="54" height="54" fill="#DBB3B1"/>
<rect x="864" y="432" width="54" height="54" fill="#CFB1B1"/>
<rect x="918" y="432" width="54" height="54" fill="#A8A7AF"/>
<rect x="972" y="432" width="54" height="54" fill="#82A0AA"/>
<rect x="1026" y="432" width="54" height="54" fill="#7D9FA8"/>
<rect x="1080" y="432" width="54" height="54" fill="#A1A1AB"/>
<rect x="1134" y="432" width="54" height="54" fill="#989CA7"/>
<rect x="1188" y="432" width="54" height="54" fill="#5E8999"/>
<rect x="1242" y="432" width="54" height="54" fill="#23788C"/>
<rect x="1296" y="432" width="54" height="54" fill="#42758A"/>
<rect x="1350" y="432" width="54" height="54" fill="#4B6E84"/>
<rect y="486" width="54" height="54" fill="#3E2D3D"/>
<rect x="54" y="486" width="54" height="54" fill="#5B3E50"/>
<rect x="108" y="486" width="54" height="54" fill="#795265"/>
<rect x="162" y="486" width="54" height="54" fill="#916C7D"/>
<rect x="216" y="486" width="54" height="54" fill="#957584"/>
<rect x="270" y="486" width="54" height="54" fill="#967B8C"/>
<rect x="324" y="486" width="54" height="54" fill="#A08492"/>
<rect x="378" y="486" width="54" height="54" fill="#C98C89"/>
<rect x="432" y="486" width="54" height="54" fill="#FEA470"/>
<rect x="486" y="486" width="54" height="54" fill="#FCB577"/>
<rect x="540" y="486" width="54" height="54" fill="#FDAC7F"/>
<rect x="594" y="486" width="54" height="54" fill="#F89C8F"/>
<rect x="648" y="486" width="54" height="54" fill="#C499A2"/>
<rect x="702" y="486" width="54" height="54" fill="#AA9CAB"/>
<rect x="756" y="486" width="54" height="54" fill="#A3868A"/>
<rect x="810" y="486" width="54" height="54" fill="#DDB4AE"/>
<rect x="864" y="486" width="54" height="54" fill="#D9B6B4"/>
<rect x="918" y="486" width="54" height="54" fill="#C2AFB1"/>
<rect x="972" y="486" width="54" height="54" fill="#ACA7AD"/>
<rect x="1026" y="486" width="54" height="54" fill="#7E9FA8"/>
<rect x="1080" y="486" width="54" height="54" fill="#829EA9"/>
<rect x="1134" y="486" width="54" height="54" fill="#7F9AA5"/>
<rect x="1188" y="486" width="54" height="54" fill="#608B9B"/>
<rect x="1242" y="486" width="54" height="54" fill="#22798D"/>
<rect x="1296" y="486" width="54" height="54" fill="#146E86"/>
<rect x="1350" y="486" width="54" height="54" fill="#2B6980"/>
<rect y="540" width="54" height="54" fill="#3B2B38"/>
<rect x="54" y="540" width="54" height="54" fill="#513947"/>
<rect x="108" y="540" width="54" height="54" fill="#835E6F"/>
<rect x="162" y="540" width="54" height="54" fill="#927080"/>
<rect x="216" y="540" width="54" height="54" fill="#846577"/>
<rect x="270" y="540" width="54" height="54" fill="#7B6071"/>
<rect x="324" y="540" width="54" height="54" fill="#A08492"/>
<rect x="378" y="540" width="54" height="54" fill="#AE8D96"/>
<rect x="432" y="540" width="54" height="54" fill="#E79587"/>
<rect x="486" y="540" width="54" height="54" fill="#FDA07F"/>
<rect x="540" y="540" width="54" height="54" fill="#FD9F85"/>
<rect x="594" y="540" width="54" height="54" fill="#F39A92"/>
<rect x="648" y="540" width="54" height="54" fill="#BD97A2"/>
<rect x="702" y="540" width="54" height="54" fill="#615563"/>
<rect x="756" y="540" width="54" height="54" fill="#7B646A"/>
<rect x="810" y="540" width="54" height="54" fill="#E1B8B2"/>
<rect x="864" y="540" width="54" height="54" fill="#E0BBB5"/>
<rect x="918" y="540" width="54" height="54" fill="#DAB8B6"/>
<rect x="972" y="540" width="54" height="54" fill="#CFB1B1"/>
<rect x="1026" y="540" width="54" height="54" fill="#A2A5AC"/>
<rect x="1080" y="540" width="54" height="54" fill="#829DA8"/>
<rect x="1134" y="540" width="54" height="54" fill="#7F9AA5"/>
<rect x="1188" y="540" width="54" height="54" fill="#5F8A9A"/>
<rect x="1242" y="540" width="54" height="54" fill="#1F768A"/>
<rect x="1296" y="540" width="54" height="54" fill="#076A81"/>
<rect x="1350" y="540" width="54" height="54" fill="#0F637B"/>
<rect y="594" width="54" height="54" fill="#4D3A4D"/>
<rect x="54" y="594" width="54" height="54" fill="#735466"/>
<rect x="108" y="594" width="54" height="54" fill="#876273"/>
<rect x="162" y="594" width="54" height="54" fill="#684959"/>
<rect x="216" y="594" width="54" height="54" fill="#745968"/>
<rect x="270" y="594" width="54" height="54" fill="#937B89"/>
<rect x="324" y="594" width="54" height="54" fill="#A18794"/>
<rect x="378" y="594" width="54" height="54" fill="#AE8F97"/>
<rect x="432" y="594" width="54" height="54" fill="#C69398"/>
<rect x="486" y="594" width="54" height="54" fill="#F3948E"/>
<rect x="540" y="594" width="54" height="54" fill="#FC978B"/>
<rect x="594" y="594" width="54" height="54" fill="#DB8D8D"/>
<rect x="648" y="594" width="54" height="54" fill="#755A69"/>
<rect x="702" y="594" width="54" height="54" fill="#85818F"/>
<rect x="756" y="594" width="54" height="54" fill="#C4ABAF"/>
<rect x="810" y="594" width="54" height="54" fill="#DEB9B3"/>
<rect x="864" y="594" width="54" height="54" fill="#E1BCB4"/>
<rect x="918" y="594" width="54" height="54" fill="#E3BEB6"/>
<rect x="972" y="594" width="54" height="54" fill="#DCB9B5"/>
<rect x="1026" y="594" width="54" height="54" fill="#C2ACAF"/>
<rect x="1080" y="594" width="54" height="54" fill="#B0A3AC"/>
<rect x="1134" y="594" width="54" height="54" fill="#A79BA5"/>
<rect x="1188" y="594" width="54" height="54" fill="#608597"/>
<rect x="1242" y="594" width="54" height="54" fill="#136E83"/>
<rect x="1296" y="594" width="54" height="54" fill="#07667C"/>
<rect x="1350" y="594" width="54" height="54" fill="#0C5E76"/>
<rect y="648" width="54" height="54" fill="#584153"/>
<rect x="54" y="648" width="54" height="54" fill="#725365"/>
<rect x="108" y="648" width="54" height="54" fill="#866675"/>
<rect x="162" y="648" width="54" height="54" fill="#8E6D7E"/>
<rect x="216" y="648" width="54" height="54" fill="#947886"/>
<rect x="270" y="648" width="54" height="54" fill="#9C808E"/>
<rect x="324" y="648" width="54" height="54" fill="#A68892"/>
<rect x="378" y="648" width="54" height="54" fill="#B09197"/>
<rect x="432" y="648" width="54" height="54" fill="#BA8F96"/>
<rect x="486" y="648" width="54" height="54" fill="#D88C8E"/>
<rect x="540" y="648" width="54" height="54" fill="#E68C8B"/>
<rect x="594" y="648" width="54" height="54" fill="#A7727A"/>
<rect x="648" y="648" width="54" height="54" fill="#9D8C9C"/>
<rect x="702" y="648" width="54" height="54" fill="#979DAB"/>
<rect x="756" y="648" width="54" height="54" fill="#C4ABAF"/>
<rect x="810" y="648" width="54" height="54" fill="#DAB7B3"/>
<rect x="864" y="648" width="54" height="54" fill="#E1BCB4"/>
<rect x="918" y="648" width="54" height="54" fill="#E2BFB9"/>
<rect x="972" y="648" width="54" height="54" fill="#E0BDB7"/>
<rect x="1026" y="648" width="54" height="54" fill="#CFB1B1"/>
<rect x="1080" y="648" width="54" height="54" fill="#CCACAD"/>
<rect x="1134" y="648" width="54" height="54" fill="#C3A3A6"/>
<rect x="1188" y="648" width="54" height="54" fill="#758293"/>
<rect x="1242" y="648" width="54" height="54" fill="#0E6880"/>
<rect x="1296" y="648" width="54" height="54" fill="#055F77"/>
<rect x="1350" y="648" width="54" height="54" fill="#065870"/>
<rect y="702" width="54" height="54" fill="#412F3D"/>
<rect x="54" y="702" width="54" height="54" fill="#6E4F5F"/>
<rect x="108" y="702" width="54" height="54" fill="#866474"/>
<rect x="162" y="702" width="54" height="54" fill="#90707D"/>
<rect x="216" y="702" width="54" height="54" fill="#957584"/>
<rect x="270" y="702" width="54" height="54" fill="#896A79"/>
<rect x="324" y="702" width="54" height="54" fill="#614956"/>
<rect x="378" y="702" width="54" height="54" fill="#513B47"/>
<rect x="432" y="702" width="54" height="54" fill="#563C47"/>
<rect x="486" y="702" width="54" height="54" fill="#80535A"/>
<rect x="540" y="702" width="54" height="54" fill="#D38C92"/>
<rect x="594" y="702" width="54" height="54" fill="#C8969F"/>
<rect x="648" y="702" width="54" height="54" fill="#A095A5"/>
<rect x="702" y="702" width="54" height="54" fill="#8B9DAB"/>
<rect x="756" y="702" width="54" height="54" fill="#B2A8B0"/>
<rect x="810" y="702" width="54" height="54" fill="#DDB6B1"/>
<rect x="864" y="702" width="54" height="54" fill="#E5BCB6"/>
<rect x="918" y="702" width="54" height="54" fill="#E1BEB8"/>
<rect x="972" y="702" width="54" height="54" fill="#DEBDB8"/>
<rect x="1026" y="702" width="54" height="54" fill="#D7B5B3"/>
<rect x="1080" y="702" width="54" height="54" fill="#DBB2B0"/>
<rect x="1134" y="702" width="54" height="54" fill="#D1A7A8"/>
<rect x="1188" y="702" width="54" height="54" fill="#8D8594"/>
<rect x="1242" y="702" width="54" height="54" fill="#19657D"/>
<rect x="1296" y="702" width="54" height="54" fill="#075971"/>
<rect x="1350" y="702" width="54" height="54" fill="#045269"/>
<rect y="756" width="54" height="54" fill="#593E4F"/>
<rect x="54" y="756" width="54" height="54" fill="#674858"/>
<rect x="108" y="756" width="54" height="54" fill="#694A59"/>
<rect x="162" y="756" width="54" height="54" fill="#5D4251"/>
<rect x="216" y="756" width="54" height="54" fill="#4E3644"/>
<rect x="270" y="756" width="54" height="54" fill="#553D4B"/>
<rect x="324" y="756" width="54" height="54" fill="#533946"/>
<rect x="378" y="756" width="54" height="54" fill="#70555E"/>
<rect x="432" y="756" width="54" height="54" fill="#A07F86"/>
<rect x="486" y="756" width="54" height="54" fill="#BF8E94"/>
<rect x="540" y="756" width="54" height="54" fill="#CA9399"/>
<rect x="594" y="756" width="54" height="54" fill="#B993A0"/>
<rect x="648" y="756" width="54" height="54" fill="#9594A4"/>
<rect x="702" y="756" width="54" height="54" fill="#839BA7"/>
<rect x="756" y="756" width="54" height="54" fill="#A5A5AD"/>
<rect x="810" y="756" width="54" height="54" fill="#DCB5B0"/>
<rect x="864" y="756" width="54" height="54" fill="#E9BCB6"/>
<rect x="918" y="756" width="54" height="54" fill="#E1BCB6"/>
<rect x="972" y="756" width="54" height="54" fill="#DCB9B3"/>
<rect x="1026" y="756" width="54" height="54" fill="#DDB4B0"/>
<rect x="1080" y="756" width="54" height="54" fill="#DDB4B0"/>
<rect x="1134" y="756" width="54" height="54" fill="#CFA9A8"/>
<rect x="1188" y="756" width="54" height="54" fill="#938795"/>
<rect x="1242" y="756" width="54" height="54" fill="#28657A"/>
<rect x="1296" y="756" width="54" height="54" fill="#09556C"/>
<rect x="1350" y="756" width="54" height="54" fill="#054D65"/>
<rect y="810" width="54" height="54" fill="#46303D"/>
<rect x="54" y="810" width="54" height="54" fill="#533847"/>
<rect x="108" y="810" width="54" height="54" fill="#5E4251"/>
<rect x="162" y="810" width="54" height="54" fill="#745262"/>
<rect x="216" y="810" width="54" height="54" fill="#4B3340"/>
<rect x="270" y="810" width="54" height="54" fill="#3F2B37"/>
<rect x="324" y="810" width="54" height="54" fill="#71535F"/>
<rect x="378" y="810" width="54" height="54" fill="#A38087"/>
<rect x="432" y="810" width="54" height="54" fill="#A7868F"/>
<rect x="486" y="810" width="54" height="54" fill="#B18690"/>
<rect x="540" y="810" width="54" height="54" fill="#B68692"/>
<rect x="594" y="810" width="54" height="54" fill="#9A7B8D"/>
<rect x="648" y="810" width="54" height="54" fill="#666479"/>
<rect x="702" y="810" width="54" height="54" fill="#516272"/>
<rect x="756" y="810" width="54" height="54" fill="#666875"/>
<rect x="810" y="810" width="54" height="54" fill="#9E7B7F"/>
<rect x="864" y="810" width="54" height="54" fill="#CB9A95"/>
<rect x="918" y="810" width="54" height="54" fill="#E2B7B0"/>
<rect x="972" y="810" width="54" height="54" fill="#D8B0AE"/>
<rect x="1026" y="810" width="54" height="54" fill="#D7AEAC"/>
<rect x="1080" y="810" width="54" height="54" fill="#D2AFAD"/>
<rect x="1134" y="810" width="54" height="54" fill="#C2A5A7"/>
<rect x="1188" y="810" width="54" height="54" fill="#8D8795"/>
<rect x="1242" y="810" width="54" height="54" fill="#3A647A"/>
<rect x="1296" y="810" width="54" height="54" fill="#10526A"/>
<rect x="1350" y="810" width="54" height="54" fill="#064A61"/>
<rect y="864" width="54" height="54" fill="#412F3D"/>
<rect x="54" y="864" width="54" height="54" fill="#4E3644"/>
<rect x="108" y="864" width="54" height="54" fill="#47313E"/>
<rect x="162" y="864" width="54" height="54" fill="#352530"/>
<rect x="216" y="864" width="54" height="54" fill="#4A3441"/>
<rect x="270" y="864" width="54" height="54" fill="#684C5A"/>
<rect x="324" y="864" width="54" height="54" fill="#8E6C7A"/>
<rect x="378" y="864" width="54" height="54" fill="#97767F"/>
<rect x="432" y="864" width="54" height="54" fill="#A1818C"/>
<rect x="486" y="864" width="54" height="54" fill="#AA8491"/>
<rect x="540" y="864" width="54" height="54" fill="#AD8494"/>
<rect x="594" y="864" width="54" height="54" fill="#9A8598"/>
<rect x="648" y="864" width="54" height="54" fill="#78899B"/>
<rect x="702" y="864" width="54" height="54" fill="#688D9D"/>
<rect x="756" y="864" width="54" height="54" fill="#8498A3"/>
<rect x="810" y="864" width="54" height="54" fill="#C6A6A7"/>
<rect x="864" y="864" width="54" height="54" fill="#E3B1AA"/>
<rect x="918" y="864" width="54" height="54" fill="#DBAEA9"/>
<rect x="972" y="864" width="54" height="54" fill="#CAA8A7"/>
<rect x="1026" y="864" width="54" height="54" fill="#C5A5A6"/>
<rect x="1080" y="864" width="54" height="54" fill="#BFA5A8"/>
<rect x="1134" y="864" width="54" height="54" fill="#B6A2A4"/>
<rect x="1188" y="864" width="54" height="54" fill="#948E9A"/>
<rect x="1242" y="864" width="54" height="54" fill="#596E81"/>
<rect x="1296" y="864" width="54" height="54" fill="#185268"/>
<rect x="1350" y="864" width="54" height="54" fill="#06465F"/>
<rect y="918" width="54" height="54" fill="#423141"/>
<rect x="54" y="918" width="54" height="54" fill="#50394B"/>
<rect x="108" y="918" width="54" height="54" fill="#533C4C"/>
<rect x="162" y="918" width="54" height="54" fill="#533C4C"/>
<rect x="216" y="918" width="54" height="54" fill="#503949"/>
<rect x="270" y="918" width="54" height="54" fill="#503848"/>
<rect x="324" y="918" width="54" height="54" fill="#4E3747"/>
<rect x="378" y="918" width="54" height="54" fill="#654A5B"/>
<rect x="432" y="918" width="54" height="54" fill="#896E7F"/>
<rect x="486" y="918" width="54" height="54" fill="#8E6D7E"/>
<rect x="540" y="918" width="54" height="54" fill="#8B6B80"/>
<rect x="594" y="918" width="54" height="54" fill="#857991"/>
<rect x="648" y="918" width="54" height="54" fill="#678094"/>
<rect x="702" y="918" width="54" height="54" fill="#5D8698"/>
<rect x="756" y="918" width="54" height="54" fill="#738F9D"/>
<rect x="810" y="918" width="54" height="54" fill="#B49BA1"/>
<rect x="864" y="918" width="54" height="54" fill="#D1A4A1"/>
<rect x="918" y="918" width="54" height="54" fill="#CCA3A1"/>
<rect x="972" y="918" width="54" height="54" fill="#BA9DA1"/>
<rect x="1026" y="918" width="54" height="54" fill="#B89B9F"/>
<rect x="1080" y="918" width="54" height="54" fill="#B79EA2"/>
<rect x="1134" y="918" width="54" height="54" fill="#B2A2A5"/>
<rect x="1188" y="918" width="54" height="54" fill="#A0969F"/>
<rect x="1242" y="918" width="54" height="54" fill="#707988"/>
<rect x="1296" y="918" width="54" height="54" fill="#24546A"/>
<rect x="1350" y="918" width="54" height="54" fill="#09465B"/>
<rect y="972" width="54" height="54" fill="#352839"/>
<rect x="54" y="972" width="54" height="54" fill="#3C2E3F"/>
<rect x="108" y="972" width="54" height="54" fill="#413040"/>
<rect x="162" y="972" width="54" height="54" fill="#413040"/>
<rect x="216" y="972" width="54" height="54" fill="#463545"/>
<rect x="270" y="972" width="54" height="54" fill="#453444"/>
<rect x="324" y="972" width="54" height="54" fill="#362835"/>
<rect x="378" y="972" width="54" height="54" fill="#3E2C3A"/>
<rect x="432" y="972" width="54" height="54" fill="#412F3D"/>
<rect x="486" y="972" width="54" height="54" fill="#533E4F"/>
<rect x="540" y="972" width="54" height="54" fill="#7B637B"/>
<rect x="594" y="972" width="54" height="54" fill="#6E6C84"/>
<rect x="648" y="972" width="54" height="54" fill="#547489"/>
<rect x="702" y="972" width="54" height="54" fill="#4C7B8D"/>
<rect x="756" y="972" width="54" height="54" fill="#638392"/>
<rect x="810" y="972" width="54" height="54" fill="#A1909A"/>
<rect x="864" y="972" width="54" height="54" fill="#C1999A"/>
<rect x="918" y="972" width="54" height="54" fill="#C0999C"/>
<rect x="972" y="972" width="54" height="54" fill="#B4959A"/>
<rect x="1026" y="972" width="54" height="54" fill="#AF949B"/>
<rect x="1080" y="972" width="54" height="54" fill="#AF9A9F"/>
<rect x="1134" y="972" width="54" height="54" fill="#AD9EA3"/>
<rect x="1188" y="972" width="54" height="54" fill="#9E979E"/>
<rect x="1242" y="972" width="54" height="54" fill="#797F8D"/>
<rect x="1296" y="972" width="54" height="54" fill="#36596D"/>
<rect x="1350" y="972" width="54" height="54" fill="#11455A"/>
</svg>
