<svg width="1404" height="1026" viewBox="0 0 1404 1026" fill="none" xmlns="http://www.w3.org/2000/svg">
<path d="M0 0H54V54H0V0Z" fill="#2E2C3A"/>
<path d="M54 0H108V54H54V0Z" fill="#322F42"/>
<path d="M108 0H162V54H108V0Z" fill="#363346"/>
<path d="M162 0H216V54H162V0Z" fill="#3B394E"/>
<path d="M216 0H270V54H216V0Z" fill="#3C3E53"/>
<path d="M270 0H324V54H270V0Z" fill="#3F445A"/>
<path d="M324 0H378V54H324V0Z" fill="#454A60"/>
<path d="M378 0H432V54H378V0Z" fill="#514F65"/>
<path d="M432 0H486V54H432V0Z" fill="#73566C"/>
<path d="M486 0H540V54H486V0Z" fill="#AB656F"/>
<path d="M540 0H594V54H540V0Z" fill="#C96D6E"/>
<path d="M594 0H648V54H594V0Z" fill="#BF6E75"/>
<path d="M648 0H702V54H648V0Z" fill="#8C6578"/>
<path d="M702 0H756V54H702V0Z" fill="#57617C"/>
<path d="M756 0H810V54H756V0Z" fill="#36647B"/>
<path d="M810 0H864V54H810V0Z" fill="#27687E"/>
<path d="M864 0H918V54H864V0Z" fill="#3D7083"/>
<path d="M918 0H972V54H918V0Z" fill="#787F8F"/>
<path d="M972 0H1026V54H972V0Z" fill="#9A8D97"/>
<path d="M1026 0H1080V54H1026V0Z" fill="#837F8D"/>
<path d="M1080 0H1134V54H1080V0Z" fill="#3D6074"/>
<path d="M1134 0H1188V54H1134V0Z" fill="#184E66"/>
<path d="M1188 0H1242V54H1188V0Z" fill="#0B4960"/>
<path d="M1242 0H1296V54H1242V0Z" fill="#06485E"/>
<path d="M1296 0H1350V54H1296V0Z" fill="#06485E"/>
<path d="M1350 0H1404V54H1350V0Z" fill="#054960"/>
<path d="M0 54H54V108H0V54Z" fill="#313042"/>
<path d="M54 54H108V108H54V54Z" fill="#353348"/>
<path d="M108 54H162V108H108V54Z" fill="#38394D"/>
<path d="M162 54H216V108H162V54Z" fill="#3D3F54"/>
<path d="M216 54H270V108H216V54Z" fill="#41465C"/>
<path d="M270 54H324V108H270V54Z" fill="#464E65"/>
<path d="M324 54H378V108H324V54Z" fill="#4F556D"/>
<path d="M378 54H432V108H378V54Z" fill="#5A5C73"/>
<path d="M432 54H486V108H432V54Z" fill="#846479"/>
<path d="M486 54H540V108H486V54Z" fill="#BA737B"/>
<path d="M540 54H594V108H540V54Z" fill="#D77979"/>
<path d="M594 54H648V108H594V54Z" fill="#CA7B80"/>
<path d="M648 54H702V108H648V54Z" fill="#9A7587"/>
<path d="M702 54H756V108H702V54Z" fill="#69748A"/>
<path d="M756 54H810V108H756V54Z" fill="#4F758A"/>
<path d="M810 54H864V108H810V54Z" fill="#43778C"/>
<path d="M864 54H918V108H864V54Z" fill="#4C7D8E"/>
<path d="M918 54H972V108H918V54Z" fill="#698392"/>
<path d="M972 54H1026V108H972V54Z" fill="#8D8D99"/>
<path d="M1026 54H1080V108H1026V54Z" fill="#888795"/>
<path d="M1080 54H1134V108H1080V54Z" fill="#5A6F82"/>
<path d="M1134 54H1188V108H1134V54Z" fill="#25576E"/>
<path d="M1188 54H1242V108H1188V54Z" fill="#0C4E66"/>
<path d="M1242 54H1296V108H1242V54Z" fill="#064D63"/>
<path d="M1296 54H1350V108H1296V54Z" fill="#054B64"/>
<path d="M1350 54H1404V108H1350V54Z" fill="#054D65"/>
<path d="M0 108H54V162H0V108Z" fill="#343345"/>
<path d="M54 108H108V162H54V108Z" fill="#3A384D"/>
<path d="M108 108H162V162H108V108Z" fill="#3F4055"/>
<path d="M162 108H216V162H162V108Z" fill="#46485F"/>
<path d="M216 108H270V162H216V108Z" fill="#4B5169"/>
<path d="M270 108H324V162H270V108Z" fill="#525A71"/>
<path d="M324 108H378V162H324V108Z" fill="#5C627A"/>
<path d="M378 108H432V162H378V108Z" fill="#67687D"/>
<path d="M432 108H486V162H432V108Z" fill="#927182"/>
<path d="M486 108H540V162H486V108Z" fill="#C97E83"/>
<path d="M540 108H594V162H540V108Z" fill="#E28381"/>
<path d="M594 108H648V162H594V108Z" fill="#D38487"/>
<path d="M648 108H702V162H648V108Z" fill="#A48292"/>
<path d="M702 108H756V162H702V108Z" fill="#7B8295"/>
<path d="M756 108H810V162H756V108Z" fill="#678496"/>
<path d="M810 108H864V162H810V108Z" fill="#5D8797"/>
<path d="M864 108H918V162H864V108Z" fill="#6A8B9A"/>
<path d="M918 108H972V162H918V108Z" fill="#768D9B"/>
<path d="M972 108H1026V162H972V108Z" fill="#85919D"/>
<path d="M1026 108H1080V162H1026V108Z" fill="#9A929D"/>
<path d="M1080 108H1134V162H1080V108Z" fill="#818392"/>
<path d="M1134 108H1188V162H1134V108Z" fill="#40667B"/>
<path d="M1188 108H1242V162H1188V108Z" fill="#12556F"/>
<path d="M1242 108H1296V162H1242V108Z" fill="#08526B"/>
<path d="M1296 108H1350V162H1296V108Z" fill="#055169"/>
<path d="M1350 108H1404V162H1350V108Z" fill="#06546B"/>
<path d="M0 162H54V216H0V162Z" fill="#3A3549"/>
<path d="M54 162H108V216H54V162Z" fill="#433E54"/>
<path d="M108 162H162V216H108V162Z" fill="#4C485F"/>
<path d="M162 162H216V216H162V162Z" fill="#56526B"/>
<path d="M216 162H270V216H216V162Z" fill="#5C5C74"/>
<path d="M270 162H324V216H270V162Z" fill="#64667B"/>
<path d="M324 162H378V216H324V162Z" fill="#6F6D82"/>
<path d="M378 162H432V216H378V162Z" fill="#7C7388"/>
<path d="M432 162H486V216H432V162Z" fill="#A37D8C"/>
<path d="M486 162H540V216H486V162Z" fill="#D48588"/>
<path d="M540 162H594V216H540V162Z" fill="#EC8984"/>
<path d="M594 162H648V216H594V162Z" fill="#DC8C8D"/>
<path d="M648 162H702V216H648V162Z" fill="#AD8B99"/>
<path d="M702 162H756V216H702V162Z" fill="#868B9E"/>
<path d="M756 162H810V216H756V162Z" fill="#80909F"/>
<path d="M810 162H864V216H810V162Z" fill="#7B919F"/>
<path d="M864 162H918V216H864V162Z" fill="#8A96A2"/>
<path d="M918 162H972V216H918V162Z" fill="#8F97A2"/>
<path d="M972 162H1026V216H972V162Z" fill="#9D9CA4"/>
<path d="M1026 162H1080V216H1026V162Z" fill="#B8A1A7"/>
<path d="M1080 162H1134V216H1080V162Z" fill="#B09BA2"/>
<path d="M1134 162H1188V216H1134V162Z" fill="#6E7B8C"/>
<path d="M1188 162H1242V216H1188V162Z" fill="#206079"/>
<path d="M1242 162H1296V216H1242V162Z" fill="#105A73"/>
<path d="M1296 162H1350V216H1296V162Z" fill="#0A586F"/>
<path d="M1350 162H1404V216H1350V162Z" fill="#0B5B72"/>
<path d="M0 216H54V270H0V216Z" fill="#483B4F"/>
<path d="M54 216H108V270H54V216Z" fill="#54465D"/>
<path d="M108 216H162V270H108V216Z" fill="#605168"/>
<path d="M162 216H216V270H162V216Z" fill="#6A5C73"/>
<path d="M216 216H270V270H216V216Z" fill="#72667C"/>
<path d="M270 216H324V270H270V216Z" fill="#776F84"/>
<path d="M324 216H378V270H324V216Z" fill="#837688"/>
<path d="M378 216H432V270H378V216Z" fill="#8F7C8F"/>
<path d="M432 216H486V270H432V216Z" fill="#B0858F"/>
<path d="M486 216H540V270H486V216Z" fill="#E28A89"/>
<path d="M540 216H594V270H540V216Z" fill="#F78F86"/>
<path d="M594 216H648V270H594V216Z" fill="#E58F8E"/>
<path d="M648 216H702V270H648V216Z" fill="#B58F9C"/>
<path d="M702 216H756V270H702V216Z" fill="#9493A1"/>
<path d="M756 216H810V270H756V216Z" fill="#A399A4"/>
<path d="M810 216H864V270H810V216Z" fill="#A59BA6"/>
<path d="M864 216H918V270H864V216Z" fill="#A39DA9"/>
<path d="M918 216H972V270H918V216Z" fill="#989AA6"/>
<path d="M972 216H1026V270H972V216Z" fill="#9E9EA8"/>
<path d="M1026 216H1080V270H1026V216Z" fill="#C0AAAC"/>
<path d="M1080 216H1134V270H1080V216Z" fill="#C7A9A9"/>
<path d="M1134 216H1188V270H1134V216Z" fill="#998F9A"/>
<path d="M1188 216H1242V270H1188V216Z" fill="#3D7085"/>
<path d="M1242 216H1296V270H1242V216Z" fill="#25667C"/>
<path d="M1296 216H1350V270H1296V216Z" fill="#286278"/>
<path d="M1350 216H1404V270H1350V216Z" fill="#1B6278"/>
<path d="M0 270H54V324H0V270Z" fill="#594358"/>
<path d="M54 270H108V324H54V270Z" fill="#664E64"/>
<path d="M108 270H162V324H108V270Z" fill="#735A6F"/>
<path d="M162 270H216V324H162V270Z" fill="#7E657A"/>
<path d="M216 270H270V324H216V270Z" fill="#816E81"/>
<path d="M270 270H324V324H270V270Z" fill="#867588"/>
<path d="M324 270H378V324H324V270Z" fill="#917C8D"/>
<path d="M378 270H432V324H378V270Z" fill="#967E8C"/>
<path d="M432 270H486V324H432V270Z" fill="#9E707A"/>
<path d="M486 270H540V324H486V270Z" fill="#95575A"/>
<path d="M540 270H594V324H540V270Z" fill="#CE716A"/>
<path d="M594 270H648V324H594V270Z" fill="#ED9490"/>
<path d="M648 270H702V324H648V270Z" fill="#BC949F"/>
<path d="M702 270H756V324H702V270Z" fill="#9E96A5"/>
<path d="M756 270H810V324H756V270Z" fill="#B8A1A9"/>
<path d="M810 270H864V324H810V270Z" fill="#BFA4A9"/>
<path d="M864 270H918V324H864V270Z" fill="#BAA3A9"/>
<path d="M918 270H972V324H918V270Z" fill="#A49CA7"/>
<path d="M972 270H1026V324H972V270Z" fill="#859BA6"/>
<path d="M1026 270H1080V324H1026V270Z" fill="#B3A6AD"/>
<path d="M1080 270H1134V324H1080V270Z" fill="#CFADAC"/>
<path d="M1134 270H1188V324H1134V270Z" fill="#B59CA2"/>
<path d="M1188 270H1242V324H1188V270Z" fill="#557B8E"/>
<path d="M1242 270H1296V324H1242V270Z" fill="#386F84"/>
<path d="M1296 270H1350V324H1296V270Z" fill="#546C84"/>
<path d="M1350 270H1404V324H1350V270Z" fill="#42687F"/>
<path d="M0 324H54V378H0V324Z" fill="#62495E"/>
<path d="M54 324H108V378H54V324Z" fill="#71556B"/>
<path d="M108 324H162V378H108V324Z" fill="#7D6074"/>
<path d="M162 324H216V378H162V324Z" fill="#896A7C"/>
<path d="M216 324H270V378H216V324Z" fill="#8D7285"/>
<path d="M270 324H324V378H270V324Z" fill="#8A7586"/>
<path d="M324 324H378V378H324V324Z" fill="#5A4856"/>
<path d="M378 324H432V378H378V324Z" fill="#4A3642"/>
<path d="M432 324H486V378H432V324Z" fill="#583740"/>
<path d="M486 324H540V378H486V324Z" fill="#B46761"/>
<path d="M540 324H594V378H540V324Z" fill="#FD9A83"/>
<path d="M594 324H648V378H594V324Z" fill="#F3968F"/>
<path d="M648 324H702V378H648V324Z" fill="#BF959F"/>
<path d="M702 324H756V378H702V324Z" fill="#A098A7"/>
<path d="M756 324H810V378H756V324Z" fill="#BBA4AC"/>
<path d="M810 324H864V378H810V324Z" fill="#C8AAAC"/>
<path d="M864 324H918V378H864V324Z" fill="#C6A9AD"/>
<path d="M918 324H972V378H918V324Z" fill="#ACA0AA"/>
<path d="M972 324H1026V378H972V324Z" fill="#7F9BA6"/>
<path d="M1026 324H1080V378H1026V324Z" fill="#98A2AB"/>
<path d="M1080 324H1134V378H1080V324Z" fill="#CBABAC"/>
<path d="M1134 324H1188V378H1134V324Z" fill="#BCA1A6"/>
<path d="M1188 324H1242V378H1188V324Z" fill="#5C8394"/>
<path d="M1242 324H1296V378H1242V324Z" fill="#337488"/>
<path d="M1296 324H1350V378H1296V324Z" fill="#62748A"/>
<path d="M1350 324H1404V378H1350V324Z" fill="#536D84"/>
<path d="M0 378H54V432H0V378Z" fill="#5C4358"/>
<path d="M54 378H108V432H54V378Z" fill="#6C4F65"/>
<path d="M108 378H162V432H108V378Z" fill="#7F5E71"/>
<path d="M162 378H216V432H162V378Z" fill="#846376"/>
<path d="M216 378H270V432H216V378Z" fill="#876A7C"/>
<path d="M270 378H324V432H270V378Z" fill="#8A7282"/>
<path d="M324 378H378V432H324V378Z" fill="#7E6374"/>
<path d="M378 378H432V432H378V378Z" fill="#8D6678"/>
<path d="M432 378H486V432H432V378Z" fill="#E6897A"/>
<path d="M486 378H540V432H486V378Z" fill="#FDA17C"/>
<path d="M540 378H594V432H540V378Z" fill="#FCA280"/>
<path d="M594 378H648V432H594V378Z" fill="#F89A8E"/>
<path d="M648 378H702V432H648V378Z" fill="#C597A1"/>
<path d="M702 378H756V432H702V378Z" fill="#A29AA9"/>
<path d="M756 378H810V432H756V378Z" fill="#BEA7AD"/>
<path d="M810 378H864V432H810V378Z" fill="#CFADAC"/>
<path d="M864 378H918V432H864V378Z" fill="#CAADAF"/>
<path d="M918 378H972V432H918V378Z" fill="#ADA3AC"/>
<path d="M972 378H1026V432H972V378Z" fill="#7D9EA7"/>
<path d="M1026 378H1080V432H1026V378Z" fill="#84A1A9"/>
<path d="M1080 378H1134V432H1080V378Z" fill="#BDA8AD"/>
<path d="M1134 378H1188V432H1134V378Z" fill="#B1A0A8"/>
<path d="M1188 378H1242V432H1188V378Z" fill="#5C8797"/>
<path d="M1242 378H1296V432H1242V378Z" fill="#2D788D"/>
<path d="M1296 378H1350V432H1296V378Z" fill="#57768B"/>
<path d="M1350 378H1404V432H1350V378Z" fill="#567186"/>
<path d="M0 432H54V486H0V432Z" fill="#4F384A"/>
<path d="M54 432H108V486H54V432Z" fill="#66465B"/>
<path d="M108 432H162V486H108V432Z" fill="#805B6D"/>
<path d="M162 432H216V486H162V432Z" fill="#8F6A7C"/>
<path d="M216 432H270V486H216V432Z" fill="#8C6B7C"/>
<path d="M270 432H324V486H270V432Z" fill="#816176"/>
<path d="M324 432H378V486H324V432Z" fill="#856475"/>
<path d="M378 432H432V486H378V432Z" fill="#BE8081"/>
<path d="M432 432H486V486H432V432Z" fill="#FCA26E"/>
<path d="M486 432H540V486H486V432Z" fill="#FCB577"/>
<path d="M540 432H594V486H540V432Z" fill="#FBAD7D"/>
<path d="M594 432H648V486H594V432Z" fill="#F99C8B"/>
<path d="M648 432H702V486H648V432Z" fill="#C698A2"/>
<path d="M702 432H756V486H702V432Z" fill="#A89CAA"/>
<path d="M756 432H810V486H756V432Z" fill="#CAACAE"/>
<path d="M810 432H864V486H810V432Z" fill="#DBB3B1"/>
<path d="M864 432H918V486H864V432Z" fill="#CFB1B1"/>
<path d="M918 432H972V486H918V432Z" fill="#A8A7AF"/>
<path d="M972 432H1026V486H972V432Z" fill="#82A0AA"/>
<path d="M1026 432H1080V486H1026V432Z" fill="#7D9FA8"/>
<path d="M1080 432H1134V486H1080V432Z" fill="#A1A1AB"/>
<path d="M1134 432H1188V486H1134V432Z" fill="#989CA7"/>
<path d="M1188 432H1242V486H1188V432Z" fill="#5E8999"/>
<path d="M1242 432H1296V486H1242V432Z" fill="#23788C"/>
<path d="M1296 432H1350V486H1296V432Z" fill="#42758A"/>
<path d="M1350 432H1404V486H1350V432Z" fill="#4B6E84"/>
<path d="M0 486H54V540H0V486Z" fill="#3E2D3D"/>
<path d="M54 486H108V540H54V486Z" fill="#5B3E50"/>
<path d="M108 486H162V540H108V486Z" fill="#795265"/>
<path d="M162 486H216V540H162V486Z" fill="#916C7D"/>
<path d="M216 486H270V540H216V486Z" fill="#957584"/>
<path d="M270 486H324V540H270V486Z" fill="#967B8C"/>
<path d="M324 486H378V540H324V486Z" fill="#A08492"/>
<path d="M378 486H432V540H378V486Z" fill="#C98C89"/>
<path d="M432 486H486V540H432V486Z" fill="#FEA470"/>
<path d="M486 486H540V540H486V486Z" fill="#FCB577"/>
<path d="M540 486H594V540H540V486Z" fill="#FDAC7F"/>
<path d="M594 486H648V540H594V486Z" fill="#F89C8F"/>
<path d="M648 486H702V540H648V486Z" fill="#C499A2"/>
<path d="M702 486H756V540H702V486Z" fill="#AA9CAB"/>
<path d="M756 486H810V540H756V486Z" fill="#A3868A"/>
<path d="M810 486H864V540H810V486Z" fill="#DDB4AE"/>
<path d="M864 486H918V540H864V486Z" fill="#D9B6B4"/>
<path d="M918 486H972V540H918V486Z" fill="#C2AFB1"/>
<path d="M972 486H1026V540H972V486Z" fill="#ACA7AD"/>
<path d="M1026 486H1080V540H1026V486Z" fill="#7E9FA8"/>
<path d="M1080 486H1134V540H1080V486Z" fill="#829EA9"/>
<path d="M1134 486H1188V540H1134V486Z" fill="#7F9AA5"/>
<path d="M1188 486H1242V540H1188V486Z" fill="#608B9B"/>
<path d="M1242 486H1296V540H1242V486Z" fill="#22798D"/>
<path d="M1296 486H1350V540H1296V486Z" fill="#146E86"/>
<path d="M1350 486H1404V540H1350V486Z" fill="#2B6980"/>
<path d="M0 540H54V594H0V540Z" fill="#3B2B38"/>
<path d="M54 540H108V594H54V540Z" fill="#513947"/>
<path d="M108 540H162V594H108V540Z" fill="#835E6F"/>
<path d="M162 540H216V594H162V540Z" fill="#927080"/>
<path d="M216 540H270V594H216V540Z" fill="#846577"/>
<path d="M270 540H324V594H270V540Z" fill="#7B6071"/>
<path d="M324 540H378V594H324V540Z" fill="#A08492"/>
<path d="M378 540H432V594H378V540Z" fill="#AE8D96"/>
<path d="M432 540H486V594H432V540Z" fill="#E79587"/>
<path d="M486 540H540V594H486V540Z" fill="#FDA07F"/>
<path d="M540 540H594V594H540V540Z" fill="#FD9F85"/>
<path d="M594 540H648V594H594V540Z" fill="#F39A92"/>
<path d="M648 540H702V594H648V540Z" fill="#BD97A2"/>
<path d="M702 540H756V594H702V540Z" fill="#615563"/>
<path d="M756 540H810V594H756V540Z" fill="#7B646A"/>
<path d="M810 540H864V594H810V540Z" fill="#E1B8B2"/>
<path d="M864 540H918V594H864V540Z" fill="#E0BBB5"/>
<path d="M918 540H972V594H918V540Z" fill="#DAB8B6"/>
<path d="M972 540H1026V594H972V540Z" fill="#CFB1B1"/>
<path d="M1026 540H1080V594H1026V540Z" fill="#A2A5AC"/>
<path d="M1080 540H1134V594H1080V540Z" fill="#829DA8"/>
<path d="M1134 540H1188V594H1134V540Z" fill="#7F9AA5"/>
<path d="M1188 540H1242V594H1188V540Z" fill="#5F8A9A"/>
<path d="M1242 540H1296V594H1242V540Z" fill="#1F768A"/>
<path d="M1296 540H1350V594H1296V540Z" fill="#076A81"/>
<path d="M1350 540H1404V594H1350V540Z" fill="#0F637B"/>
<path d="M0 594H54V648H0V594Z" fill="#4D3A4D"/>
<path d="M54 594H108V648H54V594Z" fill="#735466"/>
<path d="M108 594H162V648H108V594Z" fill="#876273"/>
<path d="M162 594H216V648H162V594Z" fill="#684959"/>
<path d="M216 594H270V648H216V594Z" fill="#745968"/>
<path d="M270 594H324V648H270V594Z" fill="#937B89"/>
<path d="M324 594H378V648H324V594Z" fill="#A18794"/>
<path d="M378 594H432V648H378V594Z" fill="#AE8F97"/>
<path d="M432 594H486V648H432V594Z" fill="#C69398"/>
<path d="M486 594H540V648H486V594Z" fill="#F3948E"/>
<path d="M540 594H594V648H540V594Z" fill="#FC978B"/>
<path d="M594 594H648V648H594V594Z" fill="#DB8D8D"/>
<path d="M648 594H702V648H648V594Z" fill="#755A69"/>
<path d="M702 594H756V648H702V594Z" fill="#85818F"/>
<path d="M756 594H810V648H756V594Z" fill="#C4ABAF"/>
<path d="M810 594H864V648H810V594Z" fill="#DEB9B3"/>
<path d="M864 594H918V648H864V594Z" fill="#E1BCB4"/>
<path d="M918 594H972V648H918V594Z" fill="#E3BEB6"/>
<path d="M972 594H1026V648H972V594Z" fill="#DCB9B5"/>
<path d="M1026 594H1080V648H1026V594Z" fill="#C2ACAF"/>
<path d="M1080 594H1134V648H1080V594Z" fill="#B0A3AC"/>
<path d="M1134 594H1188V648H1134V594Z" fill="#A79BA5"/>
<path d="M1188 594H1242V648H1188V594Z" fill="#608597"/>
<path d="M1242 594H1296V648H1242V594Z" fill="#136E83"/>
<path d="M1296 594H1350V648H1296V594Z" fill="#07667C"/>
<path d="M1350 594H1404V648H1350V594Z" fill="#0C5E76"/>
<path d="M0 648H54V702H0V648Z" fill="#584153"/>
<path d="M54 648H108V702H54V648Z" fill="#725365"/>
<path d="M108 648H162V702H108V648Z" fill="#866675"/>
<path d="M162 648H216V702H162V648Z" fill="#8E6D7E"/>
<path d="M216 648H270V702H216V648Z" fill="#947886"/>
<path d="M270 648H324V702H270V648Z" fill="#9C808E"/>
<path d="M324 648H378V702H324V648Z" fill="#A68892"/>
<path d="M378 648H432V702H378V648Z" fill="#B09197"/>
<path d="M432 648H486V702H432V648Z" fill="#BA8F96"/>
<path d="M486 648H540V702H486V648Z" fill="#D88C8E"/>
<path d="M540 648H594V702H540V648Z" fill="#E68C8B"/>
<path d="M594 648H648V702H594V648Z" fill="#A7727A"/>
<path d="M648 648H702V702H648V648Z" fill="#9D8C9C"/>
<path d="M702 648H756V702H702V648Z" fill="#979DAB"/>
<path d="M756 648H810V702H756V648Z" fill="#C4ABAF"/>
<path d="M810 648H864V702H810V648Z" fill="#DAB7B3"/>
<path d="M864 648H918V702H864V648Z" fill="#E1BCB4"/>
<path d="M918 648H972V702H918V648Z" fill="#E2BFB9"/>
<path d="M972 648H1026V702H972V648Z" fill="#E0BDB7"/>
<path d="M1026 648H1080V702H1026V648Z" fill="#CFB1B1"/>
<path d="M1080 648H1134V702H1080V648Z" fill="#CCACAD"/>
<path d="M1134 648H1188V702H1134V648Z" fill="#C3A3A6"/>
<path d="M1188 648H1242V702H1188V648Z" fill="#758293"/>
<path d="M1242 648H1296V702H1242V648Z" fill="#0E6880"/>
<path d="M1296 648H1350V702H1296V648Z" fill="#055F77"/>
<path d="M1350 648H1404V702H1350V648Z" fill="#065870"/>
<path d="M0 702H54V756H0V702Z" fill="#412F3D"/>
<path d="M54 702H108V756H54V702Z" fill="#6E4F5F"/>
<path d="M108 702H162V756H108V702Z" fill="#866474"/>
<path d="M162 702H216V756H162V702Z" fill="#90707D"/>
<path d="M216 702H270V756H216V702Z" fill="#957584"/>
<path d="M270 702H324V756H270V702Z" fill="#896A79"/>
<path d="M324 702H378V756H324V702Z" fill="#614956"/>
<path d="M378 702H432V756H378V702Z" fill="#513B47"/>
<path d="M432 702H486V756H432V702Z" fill="#563C47"/>
<path d="M486 702H540V756H486V702Z" fill="#80535A"/>
<path d="M540 702H594V756H540V702Z" fill="#D38C92"/>
<path d="M594 702H648V756H594V702Z" fill="#C8969F"/>
<path d="M648 702H702V756H648V702Z" fill="#A095A5"/>
<path d="M702 702H756V756H702V702Z" fill="#8B9DAB"/>
<path d="M756 702H810V756H756V702Z" fill="#B2A8B0"/>
<path d="M810 702H864V756H810V702Z" fill="#DDB6B1"/>
<path d="M864 702H918V756H864V702Z" fill="#E5BCB6"/>
<path d="M918 702H972V756H918V702Z" fill="#E1BEB8"/>
<path d="M972 702H1026V756H972V702Z" fill="#DEBDB8"/>
<path d="M1026 702H1080V756H1026V702Z" fill="#D7B5B3"/>
<path d="M1080 702H1134V756H1080V702Z" fill="#DBB2B0"/>
<path d="M1134 702H1188V756H1134V702Z" fill="#D1A7A8"/>
<path d="M1188 702H1242V756H1188V702Z" fill="#8D8594"/>
<path d="M1242 702H1296V756H1242V702Z" fill="#19657D"/>
<path d="M1296 702H1350V756H1296V702Z" fill="#075971"/>
<path d="M1350 702H1404V756H1350V702Z" fill="#045269"/>
<path d="M0 756H54V810H0V756Z" fill="#593E4F"/>
<path d="M54 756H108V810H54V756Z" fill="#674858"/>
<path d="M108 756H162V810H108V756Z" fill="#694A59"/>
<path d="M162 756H216V810H162V756Z" fill="#5D4251"/>
<path d="M216 756H270V810H216V756Z" fill="#4E3644"/>
<path d="M270 756H324V810H270V756Z" fill="#553D4B"/>
<path d="M324 756H378V810H324V756Z" fill="#533946"/>
<path d="M378 756H432V810H378V756Z" fill="#70555E"/>
<path d="M432 756H486V810H432V756Z" fill="#A07F86"/>
<path d="M486 756H540V810H486V756Z" fill="#BF8E94"/>
<path d="M540 756H594V810H540V756Z" fill="#CA9399"/>
<path d="M594 756H648V810H594V756Z" fill="#B993A0"/>
<path d="M648 756H702V810H648V756Z" fill="#9594A4"/>
<path d="M702 756H756V810H702V756Z" fill="#839BA7"/>
<path d="M756 756H810V810H756V756Z" fill="#A5A5AD"/>
<path d="M810 756H864V810H810V756Z" fill="#DCB5B0"/>
<path d="M864 756H918V810H864V756Z" fill="#E9BCB6"/>
<path d="M918 756H972V810H918V756Z" fill="#E1BCB6"/>
<path d="M972 756H1026V810H972V756Z" fill="#DCB9B3"/>
<path d="M1026 756H1080V810H1026V756Z" fill="#DDB4B0"/>
<path d="M1080 756H1134V810H1080V756Z" fill="#DDB4B0"/>
<path d="M1134 756H1188V810H1134V756Z" fill="#CFA9A8"/>
<path d="M1188 756H1242V810H1188V756Z" fill="#938795"/>
<path d="M1242 756H1296V810H1242V756Z" fill="#28657A"/>
<path d="M1296 756H1350V810H1296V756Z" fill="#09556C"/>
<path d="M1350 756H1404V810H1350V756Z" fill="#054D65"/>
<path d="M0 810H54V864H0V810Z" fill="#46303D"/>
<path d="M54 810H108V864H54V810Z" fill="#533847"/>
<path d="M108 810H162V864H108V810Z" fill="#5E4251"/>
<path d="M162 810H216V864H162V810Z" fill="#745262"/>
<path d="M216 810H270V864H216V810Z" fill="#4B3340"/>
<path d="M270 810H324V864H270V810Z" fill="#3F2B37"/>
<path d="M324 810H378V864H324V810Z" fill="#71535F"/>
<path d="M378 810H432V864H378V810Z" fill="#A38087"/>
<path d="M432 810H486V864H432V810Z" fill="#A7868F"/>
<path d="M486 810H540V864H486V810Z" fill="#B18690"/>
<path d="M540 810H594V864H540V810Z" fill="#B68692"/>
<path d="M594 810H648V864H594V810Z" fill="#9A7B8D"/>
<path d="M648 810H702V864H648V810Z" fill="#666479"/>
<path d="M702 810H756V864H702V810Z" fill="#516272"/>
<path d="M756 810H810V864H756V810Z" fill="#666875"/>
<path d="M810 810H864V864H810V810Z" fill="#9E7B7F"/>
<path d="M864 810H918V864H864V810Z" fill="#CB9A95"/>
<path d="M918 810H972V864H918V810Z" fill="#E2B7B0"/>
<path d="M972 810H1026V864H972V810Z" fill="#D8B0AE"/>
<path d="M1026 810H1080V864H1026V810Z" fill="#D7AEAC"/>
<path d="M1080 810H1134V864H1080V810Z" fill="#D2AFAD"/>
<path d="M1134 810H1188V864H1134V810Z" fill="#C2A5A7"/>
<path d="M1188 810H1242V864H1188V810Z" fill="#8D8795"/>
<path d="M1242 810H1296V864H1242V810Z" fill="#3A647A"/>
<path d="M1296 810H1350V864H1296V810Z" fill="#10526A"/>
<path d="M1350 810H1404V864H1350V810Z" fill="#064A61"/>
<path d="M0 864H54V918H0V864Z" fill="#412F3D"/>
<path d="M54 864H108V918H54V864Z" fill="#4E3644"/>
<path d="M108 864H162V918H108V864Z" fill="#47313E"/>
<path d="M162 864H216V918H162V864Z" fill="#352530"/>
<path d="M216 864H270V918H216V864Z" fill="#4A3441"/>
<path d="M270 864H324V918H270V864Z" fill="#684C5A"/>
<path d="M324 864H378V918H324V864Z" fill="#8E6C7A"/>
<path d="M378 864H432V918H378V864Z" fill="#97767F"/>
<path d="M432 864H486V918H432V864Z" fill="#A1818C"/>
<path d="M486 864H540V918H486V864Z" fill="#AA8491"/>
<path d="M540 864H594V918H540V864Z" fill="#AD8494"/>
<path d="M594 864H648V918H594V864Z" fill="#9A8598"/>
<path d="M648 864H702V918H648V864Z" fill="#78899B"/>
<path d="M702 864H756V918H702V864Z" fill="#688D9D"/>
<path d="M756 864H810V918H756V864Z" fill="#8498A3"/>
<path d="M810 864H864V918H810V864Z" fill="#C6A6A7"/>
<path d="M864 864H918V918H864V864Z" fill="#E3B1AA"/>
<path d="M918 864H972V918H918V864Z" fill="#DBAEA9"/>
<path d="M972 864H1026V918H972V864Z" fill="#CAA8A7"/>
<path d="M1026 864H1080V918H1026V864Z" fill="#C5A5A6"/>
<path d="M1080 864H1134V918H1080V864Z" fill="#BFA5A8"/>
<path d="M1134 864H1188V918H1134V864Z" fill="#B6A2A4"/>
<path d="M1188 864H1242V918H1188V864Z" fill="#948E9A"/>
<path d="M1242 864H1296V918H1242V864Z" fill="#596E81"/>
<path d="M1296 864H1350V918H1296V864Z" fill="#185268"/>
<path d="M1350 864H1404V918H1350V864Z" fill="#06465F"/>
<path d="M0 918H54V972H0V918Z" fill="#423141"/>
<path d="M54 918H108V972H54V918Z" fill="#50394B"/>
<path d="M108 918H162V972H108V918Z" fill="#533C4C"/>
<path d="M162 918H216V972H162V918Z" fill="#533C4C"/>
<path d="M216 918H270V972H216V918Z" fill="#503949"/>
<path d="M270 918H324V972H270V918Z" fill="#503848"/>
<path d="M324 918H378V972H324V918Z" fill="#4E3747"/>
<path d="M378 918H432V972H378V918Z" fill="#654A5B"/>
<path d="M432 918H486V972H432V918Z" fill="#896E7F"/>
<path d="M486 918H540V972H486V918Z" fill="#8E6D7E"/>
<path d="M540 918H594V972H540V918Z" fill="#8B6B80"/>
<path d="M594 918H648V972H594V918Z" fill="#857991"/>
<path d="M648 918H702V972H648V918Z" fill="#678094"/>
<path d="M702 918H756V972H702V918Z" fill="#5D8698"/>
<path d="M756 918H810V972H756V918Z" fill="#738F9D"/>
<path d="M810 918H864V972H810V918Z" fill="#B49BA1"/>
<path d="M864 918H918V972H864V918Z" fill="#D1A4A1"/>
<path d="M918 918H972V972H918V918Z" fill="#CCA3A1"/>
<path d="M972 918H1026V972H972V918Z" fill="#BA9DA1"/>
<path d="M1026 918H1080V972H1026V918Z" fill="#B89B9F"/>
<path d="M1080 918H1134V972H1080V918Z" fill="#B79EA2"/>
<path d="M1134 918H1188V972H1134V918Z" fill="#B2A2A5"/>
<path d="M1188 918H1242V972H1188V918Z" fill="#A0969F"/>
<path d="M1242 918H1296V972H1242V918Z" fill="#707988"/>
<path d="M1296 918H1350V972H1296V918Z" fill="#24546A"/>
<path d="M1350 918H1404V972H1350V918Z" fill="#09465B"/>
<path d="M0 972H54V1026H0V972Z" fill="#352839"/>
<path d="M54 972H108V1026H54V972Z" fill="#3C2E3F"/>
<path d="M108 972H162V1026H108V972Z" fill="#413040"/>
<path d="M162 972H216V1026H162V972Z" fill="#413040"/>
<path d="M216 972H270V1026H216V972Z" fill="#463545"/>
<path d="M270 972H324V1026H270V972Z" fill="#453444"/>
<path d="M324 972H378V1026H324V972Z" fill="#362835"/>
<path d="M378 972H432V1026H378V972Z" fill="#3E2C3A"/>
<path d="M432 972H486V1026H432V972Z" fill="#412F3D"/>
<path d="M486 972H540V1026H486V972Z" fill="#533E4F"/>
<path d="M540 972H594V1026H540V972Z" fill="#7B637B"/>
<path d="M594 972H648V1026H594V972Z" fill="#6E6C84"/>
<path d="M648 972H702V1026H648V972Z" fill="#547489"/>
<path d="M702 972H756V1026H702V972Z" fill="#4C7B8D"/>
<path d="M756 972H810V1026H756V972Z" fill="#638392"/>
<path d="M810 972H864V1026H810V972Z" fill="#A1909A"/>
<path d="M864 972H918V1026H864V972Z" fill="#C1999A"/>
<path d="M918 972H972V1026H918V972Z" fill="#C0999C"/>
<path d="M972 972H1026V1026H972V972Z" fill="#B4959A"/>
<path d="M1026 972H1080V1026H1026V972Z" fill="#AF949B"/>
<path d="M1080 972H1134V1026H1080V972Z" fill="#AF9A9F"/>
<path d="M1134 972H1188V1026H1134V972Z" fill="#AD9EA3"/>
<path d="M1188 972H1242V1026H1188V972Z" fill="#9E979E"/>
<path d="M1242 972H1296V1026H1242V972Z" fill="#797F8D"/>
<path d="M1296 972H1350V1026H1296V972Z" fill="#36596D"/>
<path d="M1350 972H1404V1026H1350V972Z" fill="#11455A"/>
</svg>
